# xmcd
#
# Track frame offsets:
#	150
#	12851
#	22415
#	33418
#	42450
#	53617
#	62175
#	75768
#	85400
#	93533
#	104631
#	117936
#	137813
#	148778
#	161027
#	174931
#	186027
#	196622
#	208452
#	214639
#	227070
#	241785
#
# Disc length: 3446 seconds
#
# Revision: 1
# Processed by: cddbd v1.5.2PL0 Copyright (c) Steve Scherf et al.
# Submitted via: audiograbber 1.83.01
#
DISCID=330d7416
DTITLE=Various - Dreamboats And Petticoats Rockin' Around The Christmas Tree
DYEAR=1900
DGENRE=Holiday
TTITLE0=Roy Orbison - Pretty Paper  
TTITLE1=Brenda Lee - Rockin' Around The Christmas Tree  
TTITLE2=Connie Francis - I'm Gonna Be Warm This Winter  
TTITLE3=The Beach Boys - Little Saint Nick  
TTITLE4=Darlene Love - Winter Wonderland  
TTITLE5=Elvis Presley and The Jordanaires - Santa Bring My Baby Back (To Me)  
TTITLE6=Billy Fury - My Christmas Prayer  
TTITLE7=Dickie Valentine - Christmas Alphabet  
TTITLE8=Adam Faith - Lonely Pup (In A Christmas Shop)  
TTITLE9=Brenda Lee - Christmas Will Be Just Another Lonely Day  
TTITLE10=Pat Boone - White Christmas  
TTITLE11=Harry Belafonte - Mary's Boy Child  
TTITLE12=The Platters - Come Home For Christmas  
TTITLE13=Bing Crosby - Silent Night  
TTITLE14=The Beverley Sisters - The Little Drummer Boy  
TTITLE15=Connie Francis - Baby's First Christmas  
TTITLE16=Nat King Cole - O Come All Ye Faithful  
TTITLE17=Johnny Mathis - The Sounds Of Christmas  
TTITLE18=Joe Brown and The Bruvvers - The Holly And The Ivy  
TTITLE19=Chuck Berry - Run Rudolph Run  
TTITLE20=Nina and Frederik - Little Donkey  
TTITLE21=The Shadows - Walking In The Air  
EXTD=Universal Music TV/EMI/Virgin Records (p) 2012
EXTT0=
EXTT1=
EXTT2=
EXTT3=
EXTT4=
EXTT5=
EXTT6=
EXTT7=
EXTT8=
EXTT9=
EXTT10=
EXTT11=
EXTT12=
EXTT13=
EXTT14=
EXTT15=
EXTT16=
EXTT17=
EXTT18=
EXTT19=
EXTT20=
EXTT21=
PLAYORDER=
